<?xml version="1.0" encoding="UTF-8"?>
<svg id="Layer_1" data-name="Layer 1" xmlns="http://www.w3.org/2000/svg" xmlns:xlink="http://www.w3.org/1999/xlink" viewBox="0 0 489 99.22">
  <defs>
    <style>
      .cls-1 {
        fill: url(#linear-gradient);
      }

      .cls-2 {
        fill: #181f12;
      }
    </style>
    <linearGradient id="linear-gradient" x1="52.04" y1="40.78" x2="105.62" y2="40.78" gradientUnits="userSpaceOnUse">
      <stop offset="0" stop-color="#d2db00"/>
      <stop offset="1" stop-color="#96c520"/>
    </linearGradient>
  </defs>
  <g>
    <path class="cls-2" d="M65.82,77.92h0s-30.16,3.42-30.16,3.42C15.96,83.57,0,69.41,0,49.71c0-9.85,3.99-19.22,10.44-26.4,6.46-7.19,15.37-12.19,25.22-13.31l30.16-3.41c0,12.49-8.81,23.64-19.64,24.87-.27.03-.53.07-.8.12l-5.49.62c-7.18.81-13,7.29-13,14.47,0,3.59,1.45,6.67,3.81,8.75,2.35,2.09,5.61,3.17,9.19,2.77l5.62-.64c.22-.02.45-.03.67-.06,10.84-1.23,19.64,7.93,19.64,20.42Z"/>
    <path class="cls-2" d="M157.66,31.87c0,9.85-3.99,19.21-10.44,26.4-6.46,7.18-15.37,12.18-25.22,13.3l-7.6.86c0,6.26-2.53,12.21-6.64,16.78-4.1,4.57-9.76,7.75-16.03,8.46l.12-22.68c0-12.49,8.81-23.65,19.63-24.88.22-.02.45-.06.67-.09l5.62-.64c7.18-.81,13-7.29,13-14.46,0-3.6-1.45-6.68-3.81-8.76-2.35-2.08-5.61-3.17-9.19-2.77l-5.62.64c-.22.02-.45.03-.67.06-10.83,1.23-19.63-7.93-19.63-20.43L122,.23c19.7-2.23,35.66,11.94,35.66,31.63Z"/>
    <path class="cls-1" d="M105.62,37.75v.02c-9.74,1.1-18.27,7.27-22.95,15.58-2.43,4.3-3.83,9.19-3.83,14.23h0s0,0,0,0h0c0-5.05-1.39-9.6-3.83-13.36-4.68-7.25-13.21-11.49-22.96-10.38v-.03c9.75-1.1,18.28-7.27,22.96-15.58,2.43-4.3,3.83-9.19,3.83-14.23h.02c0,5.04,1.39,9.61,3.83,13.36,4.67,7.25,13.2,11.5,22.95,10.39Z"/>
  </g>
  <g>
    <path class="cls-2" d="M194.85,30.01c0-15.39,6.88-22.77,21.21-22.77,13.14,0,20.65,4.5,20.65,16.14h-3.13c0-11.2-9.26-13.01-17.96-13.01-12.64,0-17.33,5.94-17.33,19.58s6.38,19.83,19.83,19.83c7.57,0,15.7-1.63,15.7-12.45h3.13c0,11.64-7.7,15.58-19.4,15.58-15.33,0-22.71-7.51-22.71-22.9Z"/>
    <path class="cls-2" d="M241.33,51.97V5.05h3.13v46.92h-3.13Z"/>
    <path class="cls-2" d="M282,37.52h-29.09c.44,9.13,5.51,12.26,13.95,12.26,6.76,0,11.64-3.88,11.64-8.51l3.13.06c0,6.88-5.19,11.57-14.83,11.57-11.64,0-17.33-5.76-17.33-16.64s5.76-16.52,16.2-16.52c11.64,0,16.33,5.94,16.33,16.52v1.25ZM278.49,34.39c-.56-8.51-5.51-11.51-12.7-11.51-6.76,0-12.07,3.88-12.82,11.51h25.53Z"/>
    <path class="cls-2" d="M300.63,22.88c-4.94,0-10.7.56-10.7,8.63h-3.13c0-8.13,5.25-11.76,13.64-11.76,9.63,0,14.39,4.19,14.39,12.01v20.21h-3.13v-4.5c-1.38,3.13-4.57,5.44-12.26,5.44-8.82,0-14.33-2.13-14.33-9.38,0-5.82,4.57-9.01,15.52-10.32l11.07-1.31v-.19c0-8.32-6.57-8.82-11.07-8.82ZM300.07,36.08c-5.69.69-11.51,2.57-11.51,7.45,0,3.5,1.69,6.26,10.89,6.26s11.89-4.82,12.26-7.82v-7.26l-11.64,1.38Z"/>
    <path class="cls-2" d="M347.68,51.97v-18.02c0-6.44-2.06-11.07-11.45-11.07-8.38,0-12.64,4.63-12.64,13.39v15.7h-3.13v-31.28h3.13v4.76c2.13-3.63,6.01-5.69,12.82-5.69,10.14,0,14.39,5.07,14.39,14.27v17.96h-3.13Z"/>
    <path class="cls-2" d="M356.43,8.18h19.9c14.08,0,18.77,5.19,18.77,15.39s-4.69,15.39-18.77,15.39h-9.45v13.01h-10.45V8.18ZM376.01,29.58c7.13,0,8.38-2.06,8.38-6.01s-1.25-6.01-8.38-6.01h-9.13v12.01h9.13Z"/>
    <path class="cls-2" d="M421.24,7.24c15.14,0,22.46,7.82,22.46,22.84s-7.32,22.84-22.46,22.84-22.4-7.82-22.4-22.84,7.32-22.84,22.4-22.84ZM421.24,43.28c7.95,0,11.7-4.5,11.7-13.2s-3.75-13.2-11.7-13.2c-8.38,0-11.64,4.44-11.64,13.2s3.75,13.2,11.64,13.2Z"/>
    <path class="cls-2" d="M447.64,21.32c0-10.07,6.13-14.08,19.83-14.08,12.01,0,19.33,3.88,19.33,14.89h-9.89c0-4.63-4.88-5.19-10.38-5.19s-8.2,1.19-8.2,3.63,2.88,2.94,11.07,4.13c11.01,1.63,17.96,4.82,17.96,14.52s-6.32,13.7-20.27,13.7c-12.14,0-19.65-3.88-19.65-14.89h9.89c0,4.63,5.13,5.26,10.82,5.26s8.45-.94,8.45-3.5c0-3.44-6.13-3.57-12.07-4.5-10.01-1.63-16.89-4.63-16.89-13.95Z"/>
  </g>
  <g>
    <path class="cls-2" d="M197.03,73.5h1.32v11.43h8.25v1.27h-9.58v-12.7Z"/>
    <path class="cls-2" d="M212.05,73.5h1.47l5.44,12.7h-1.45l-1.11-2.56h-7.24l-1.09,2.56h-1.47l5.44-12.7ZM215.86,82.37l-3.07-7.17-3.08,7.17h6.15Z"/>
    <path class="cls-2" d="M228.93,81.3v-7.8h1.32v7.62c0,4.12-2.38,5.35-5.46,5.35s-5.46-1.23-5.46-5.35v-7.62h1.32v7.8c0,2.79,1.52,3.88,4.14,3.88s4.14-1.09,4.14-3.88Z"/>
    <path class="cls-2" d="M231.88,73.5h1.32l7.89,10.5v-10.5h1.32v12.7h-1.32l-7.89-10.52v10.52h-1.32v-12.7Z"/>
    <path class="cls-2" d="M244.24,73.5h5.01c3.88,0,6.28,2.16,6.28,6.35s-2.39,6.35-6.28,6.35h-5.01v-12.7ZM249.46,84.92c2.78,0,4.63-1.71,4.63-5.1s-1.85-5.06-4.63-5.06h-3.9v10.16h3.9Z"/>
    <path class="cls-2" d="M256.98,73.5h5.64c3.54,0,5.1,1.27,5.1,3.75s-1.43,3.66-4.54,3.74l4.24,5.21h-1.67l-4.23-5.21h-3.23v5.21h-1.32v-12.7ZM262.69,79.72c2.65,0,3.59-.82,3.59-2.47s-.94-2.49-3.59-2.49h-4.39v4.95h4.39Z"/>
    <path class="cls-2" d="M273.25,79.86l-4.99-6.37h1.65l4.01,5.12,4.01-5.12h1.63l-4.99,6.37v6.33h-1.32v-6.33Z"/>
    <path class="cls-2" d="M285.19,73.5h1.32l5.81,10.81,5.79-10.81h1.32v12.7h-1.32v-9.96l-5.33,9.96h-.91l-5.35-9.96v9.96h-1.32v-12.7Z"/>
    <path class="cls-2" d="M305.71,73.5h1.47l5.44,12.7h-1.45l-1.11-2.56h-7.24l-1.09,2.56h-1.47l5.44-12.7ZM309.52,82.37l-3.07-7.17-3.08,7.17h6.15Z"/>
    <path class="cls-2" d="M314.04,73.5h1.32l7.89,10.5v-10.5h1.32v12.7h-1.32l-7.89-10.52v10.52h-1.32v-12.7Z"/>
    <path class="cls-2" d="M330.86,73.5h1.47l5.44,12.7h-1.45l-1.11-2.56h-7.24l-1.09,2.56h-1.47l5.44-12.7ZM334.67,82.37l-3.07-7.17-3.08,7.17h6.15Z"/>
    <path class="cls-2" d="M337.95,79.83c0-4.46,2.01-6.6,6.2-6.6,3.83,0,6.02,1.31,6.02,4.68h-1.31c0-2.9-2.49-3.39-4.83-3.39-3.41,0-4.68,1.6-4.68,5.3s1.72,5.37,4.66,5.37c2.23,0,3.56-2,4.52-4.06h-4.23v-1.23h5.95v6.31h-1.31v-3.75c-1.05,2.14-2.63,4.03-5.08,4.03-3.79,0-5.93-2.18-5.93-6.64Z"/>
    <path class="cls-2" d="M351.9,73.5h9.62v1.27h-8.29v4.44h7.56v1.27h-7.56v4.44h8.47v1.27h-9.8v-12.7Z"/>
    <path class="cls-2" d="M363.01,73.5h1.32l5.81,10.81,5.79-10.81h1.32v12.7h-1.32v-9.96l-5.33,9.96h-.91l-5.35-9.96v9.96h-1.32v-12.7Z"/>
    <path class="cls-2" d="M379.07,73.5h9.61v1.27h-8.29v4.44h7.57v1.27h-7.57v4.44h8.47v1.27h-9.8v-12.7Z"/>
    <path class="cls-2" d="M390.17,73.5h1.32l7.89,10.5v-10.5h1.32v12.7h-1.32l-7.89-10.52v10.52h-1.32v-12.7Z"/>
    <path class="cls-2" d="M406.33,74.76h-4.39v-1.27h10.1v1.27h-4.39v11.43h-1.32v-11.43Z"/>
    <path class="cls-2" d="M417.8,76.69c0-2.45,1.65-3.47,5.3-3.47,3.21,0,5.13,1.13,5.13,4.32h-1.29c0-2.63-1.83-2.96-3.92-2.96-2.94,0-3.79.74-3.79,2.07,0,1.43,1.49,1.98,3.9,2.4,3.46.58,5.24,1.38,5.24,3.86s-1.69,3.56-5.46,3.56c-3.27,0-5.28-1.12-5.28-4.32h1.31c0,2.68,1.92,3.03,4.08,3.03,2.65,0,3.92-.69,3.92-2.2,0-2.14-2.59-2.19-4.17-2.54-2.9-.65-4.97-1.16-4.97-3.75Z"/>
    <path class="cls-2" d="M433.91,79.86l-4.99-6.37h1.65l4.01,5.12,4.01-5.12h1.63l-4.99,6.37v6.33h-1.32v-6.33Z"/>
    <path class="cls-2" d="M440.86,76.69c0-2.45,1.65-3.47,5.3-3.47,3.21,0,5.13,1.13,5.13,4.32h-1.29c0-2.63-1.83-2.96-3.92-2.96-2.94,0-3.79.74-3.79,2.07,0,1.43,1.49,1.98,3.9,2.4,3.47.58,5.24,1.38,5.24,3.86s-1.69,3.56-5.46,3.56c-3.27,0-5.28-1.12-5.28-4.32h1.31c0,2.68,1.92,3.03,4.08,3.03,2.65,0,3.92-.69,3.92-2.2,0-2.14-2.59-2.19-4.17-2.54-2.9-.65-4.97-1.16-4.97-3.75Z"/>
    <path class="cls-2" d="M456.7,74.76h-4.39v-1.27h10.1v1.27h-4.39v11.43h-1.32v-11.43Z"/>
    <path class="cls-2" d="M463.65,73.5h9.61v1.27h-8.29v4.44h7.57v1.27h-7.57v4.44h8.47v1.27h-9.8v-12.7Z"/>
    <path class="cls-2" d="M474.76,73.5h1.32l5.81,10.81,5.79-10.81h1.32v12.7h-1.32v-9.96l-5.33,9.96h-.91l-5.35-9.96v9.96h-1.32v-12.7Z"/>
  </g>
</svg>